<svg width="8" height="8" viewBox="0 0 8 8" fill="none" xmlns="http://www.w3.org/2000/svg">
<mask id="mask0" mask-type="alpha" maskUnits="userSpaceOnUse" x="0" y="0" width="9" height="8">
<path d="M7.57229 2.71946L5.41429 2.40596L4.44879 0.450461C4.27979 0.108961 3.72079 0.108961 3.55179 0.450461L2.58679 2.40596L0.428292 2.71946C0.0197924 2.77896 -0.145708 3.28296 0.151292 3.57296L1.71329 5.09496L1.34479 7.24446C1.27529 7.65146 1.70329 7.96396 2.07029 7.77146L4.00029 6.75696L5.93079 7.77196C6.29479 7.96246 6.72629 7.65496 6.65629 7.24496L6.28779 5.09546L7.84979 3.57346C8.14629 3.28296 7.98079 2.77896 7.57229 2.71946Z" fill="black"/>
</mask>
<g mask="url(#mask0)">
<path d="M7.57229 2.71946L5.41429 2.40596L4.44879 0.450461C4.27979 0.108961 3.72079 0.108961 3.55179 0.450461L2.58679 2.40596L0.428292 2.71946C0.0197924 2.77896 -0.145708 3.28296 0.151292 3.57296L1.71329 5.09496L1.34479 7.24446C1.27529 7.65146 1.70329 7.96396 2.07029 7.77146L4.00029 6.75696L5.93079 7.77196C6.29479 7.96246 6.72629 7.65496 6.65629 7.24496L6.28779 5.09546L7.84979 3.57346C8.14629 3.28296 7.98079 2.77896 7.57229 2.71946Z" fill="#7A869F"/>
<rect x="-1" y="-1" width="9.31142" height="10" fill="#FF7B01"/>
</g>
</svg>
